<?xml version="1.0" encoding="utf-8"?>
<!-- Generator: Adobe Illustrator 18.1.0, SVG Export Plug-In . SVG Version: 6.00 Build 0)  -->
<svg version="1.1" id="Layer_1" xmlns="http://www.w3.org/2000/svg" xmlns:xlink="http://www.w3.org/1999/xlink" x="0px" y="0px"
	 viewBox="0 0 100 100" enable-background="new 0 0 100 100" xml:space="preserve">
<g>
	<path fill="#091117" d="M47.3,91.1c0,0,8.2-17.7,1.3-37.4c-1.7,1.8-3.3,3.8-4.8,5.9C46.7,68.5,48.2,79,47.3,91.1z"/>
	<path fill="#091117" d="M43.8,43.8C37,33,24.8,22.4,3.4,14.4c0,0,22.9,10.1,35.7,34.4c0.7-1,1.5-1.9,2.3-2.8
		C42.2,45.2,43,44.5,43.8,43.8z"/>
	<path fill="#091117" d="M30.2,84.3C44,33.4,92.3,27.6,97,27.1c0.2,0,0.4,0,0.4,0c-0.1,0-0.3,0-0.4,0C25.2,28.2,30.2,84.3,30.2,84.3
		z"/>
	<path fill="#091117" d="M47,33.4c4,0,7.3-3.3,7.3-7.3c0-4-3.3-7.3-7.3-7.3s-7.3,3.2-7.3,7.3C39.7,30.2,43,33.4,47,33.4z"/>
</g>
</svg>
