<?xml version="1.0" encoding="utf-8"?>
<!-- Generator: Adobe Illustrator 18.1.0, SVG Export Plug-In . SVG Version: 6.00 Build 0)  -->
<svg version="1.1" id="Layer_1" xmlns="http://www.w3.org/2000/svg" xmlns:xlink="http://www.w3.org/1999/xlink" x="0px" y="0px"
	 viewBox="0 0 100 100" enable-background="new 0 0 100 100" xml:space="preserve">
<g>
	<path fill="#091117" d="M96,46c0-18.7-20.1-33.9-44.9-33.9C26.4,12.2,6.2,27.4,6.2,46c0,8.7,4.4,17,12.4,23.4l1,0.8L13,89.1
		l4.9-2.8c5.9-3.4,13.6-7.5,16.3-8.5l0.6-0.2l0.6,0.2c5,1.4,10.3,2.1,15.8,2.1C75.8,79.9,96,64.7,96,46z M51.1,75.7
		c-5.3,0-10.5-0.8-15.4-2.2l-0.8-0.1c-0.5,0-1.9,0-9.9,4.2l-4.2,2.2l4-11.2l-1.3-0.9C15,62,10.4,54.3,10.4,46
		c0-16.3,18.2-29.6,40.7-29.6c22.4,0,40.7,13.3,40.7,29.6C91.8,62.4,73.5,75.7,51.1,75.7z"/>
</g>
</svg>
