<?xml version="1.0" encoding="utf-8"?>
<!-- Generator: Adobe Illustrator 18.1.0, SVG Export Plug-In . SVG Version: 6.00 Build 0)  -->
<svg version="1.1" id="Layer_1" xmlns="http://www.w3.org/2000/svg" xmlns:xlink="http://www.w3.org/1999/xlink" x="0px" y="0px"
	 viewBox="0 0 100 100" enable-background="new 0 0 100 100" xml:space="preserve">
<g>
	<path fill="#091117" d="M17.2,74.1c-0.1-0.5-0.3-1-0.4-1.5c0.5,0,1.1-0.1,1.6-0.1c0.5,0,1.1,0,1.6,0c0.5,0,1.1,0,1.6,0
		c0.5,0,1.1,0,1.6,0c0.2,0.8,0.5,1.7,0.7,2.5c1,3.1,2.4,6.1,4.2,8.9c0.7,1,1.4,1.9,2.2,2.8c0.6,0.7,1.2,1.3,1.9,1.9
		c2,1.7,4.3,3.1,6.9,3.8c-0.6,0.4-1.3,0.7-2,0.9c-0.7,0.2-1.4,0.3-2.1,0.2c-0.7,0-1.4-0.1-2.1-0.3c-0.7-0.2-1.3-0.4-1.9-0.7
		c-0.6-0.3-1.2-0.6-1.8-0.9c-1.4-0.9-2.8-1.9-3.9-3.1c-3.6-3.5-5.9-8.1-7.7-12.7C17.5,75.1,17.4,74.6,17.2,74.1"/>
	<path fill="#091117" d="M58.3,91.1c-3.1,1.9-7.1,1.9-10.5,0.7c-0.5-0.1-1-0.3-1.5-0.5c-0.5-0.2-1-0.3-1.4-0.5
		c-3.4-1.2-6.5-3.1-9.2-5.5c-0.5-0.5-1-1-1.5-1.5c-2.6-2.8-4.6-6.3-5.4-10c1.6-0.1,3.2-0.1,4.8-0.3c1.4,4.8,4.1,9.4,8.2,12.5
		c0.6,0.4,1.2,0.8,1.8,1.2c0.6,0.4,1.3,0.7,2,1c0.6,0.3,1.2,0.5,1.8,0.8c0.3,0.1,0.5,0.2,0.8,0.3c0.3,0.1,0.5,0.2,0.8,0.3
		c3.2,1.2,6.8,1.4,10.2,1.1C58.8,90.8,58.6,91,58.3,91.1"/>
	<path fill="#091117" d="M64.7,28.4c-0.3-1.4-0.6-2.7-1-4.1c-0.4-1.4-0.8-2.7-1.2-4C60.8,14.8,58.4,9.6,56,4.4
		c3.1,4.9,6.5,9.7,9.8,14.5c0.8,1.2,1.6,2.3,2.5,3.5c0.8,1.2,1.7,2.3,2.5,3.4c0.7,1,1.5,1.9,2.2,2.9c0.9,1.2,1.9,2.5,2.8,3.7
		c0.9,1.2,1.9,2.5,2.8,3.7c0.7,1,1.4,1.9,2.2,2.9c-2-0.6-4-1.3-6.1-1.6c0.1,1.9,0.2,3.8,0.4,5.7c0.1,0.9,0.1,1.9,0.1,2.9
		c0.1,2.9,0.2,5.7,0.1,8.6c0,1.4-0.1,2.8-0.2,4.3c-0.6,9.9-3.1,19.8-9.5,27.5c-1,1.1-2.1,2.2-3.3,3.1c-2.6,2-5.9,2.9-9.1,3.2
		c3.6-1.4,6.7-4.2,8.6-7.5c0.6-1.1,1.1-2.2,1.6-3.3c0.9-2.3,1.5-4.8,2.1-7.3c2-9,2.3-17.8,1.7-26.6c-0.1-1.5-0.2-2.9-0.4-4.4
		c-0.2-1.8-0.3-3.5-0.5-5.3c-0.2-1.8-0.4-3.6-0.7-5.3C65.3,31.5,65.1,30,64.7,28.4"/>
	<path fill="#091117" d="M50.6,85.3c-0.5,0.8-1,1.5-1.6,2.2c-0.6,0.7-1.2,1.3-1.9,2c-0.7,0.6-1.4,1.1-2.2,1.6
		c-0.8,0.5-1.6,0.9-2.4,1.3c-3.4,1.5-7.4,1.6-10.8,0.1c2.7,0.2,5.4-0.6,7.6-2.1c0.7-0.5,1.4-1,2-1.6c0.6-0.6,1.2-1.2,1.7-1.9
		c0.5-0.7,1-1.4,1.4-2.2c2.9-6.1,4.1-12.7,4.8-19.3c0.1-1.3,0.3-2.7,0.4-4c0.2-2.2,0.3-4.4,0.4-6.6c0.1-2.2,0.2-4.4,0.3-6.6
		c0-1.1,0.1-2.2,0.1-3.3c0-1.1,0.1-2.2,0.1-3.3c-1.9,0.6-3.8,1.2-5.7,1.8c1.6-3,3.2-6.1,4.5-9.2c0.5-1,0.9-2.1,1.3-3.2
		c1.2-3.2,2.3-6.4,3.2-9.7c0.3-1.1,0.6-2.2,0.8-3.3c1-4.4,1.4-9,1-13.6c1.5,4.4,2.5,9,3.2,13.6c0.2,1.1,0.3,2.3,0.5,3.5
		c0.2,1.1,0.3,2.3,0.5,3.5c0.1,1.1,0.3,2.2,0.4,3.3c0.1,1.1,0.2,2.2,0.3,3.3c0.1,1.5,0.2,3.1,0.2,4.6c0,1.5,0,3.1,0,4.6
		c0,1.6-0.1,3.2-0.3,4.9c-0.1,1.4-0.2,2.7-0.4,4.1c-0.1,1.1-0.2,2.2-0.4,3.3c-0.1,0.9-0.3,1.8-0.4,2.7c-0.4,2.7-0.8,5.5-1.3,8.2
		c-0.2,0.9-0.3,1.8-0.5,2.7c-0.5,2.8-1.2,5.5-2.1,8.2c-0.3,0.9-0.6,1.8-0.9,2.7c-0.3,0.8-0.6,1.5-0.9,2.2c-0.6,1.5-1.3,2.9-2.1,4.3
		C51.2,84.4,50.9,84.9,50.6,85.3"/>
</g>
</svg>
