<?xml version="1.0" encoding="utf-8"?>
<!-- Generator: Adobe Illustrator 18.1.0, SVG Export Plug-In . SVG Version: 6.00 Build 0)  -->
<svg version="1.1" id="Layer_1" xmlns="http://www.w3.org/2000/svg" xmlns:xlink="http://www.w3.org/1999/xlink" x="0px" y="0px"
	 viewBox="0 0 100 100" enable-background="new 0 0 100 100" xml:space="preserve">
<g>
	<path fill="#091117" d="M78,37.8c-2.2-2.8-4.2-5.9-6.3-8.8c-0.8-1.2-0.7-3.1,0.5-3.9c3.6-2.7,7.4-5.1,11.1-7.8
		c-2.6-1.5-5.6-1.9-8.5-1.7c-4.9,0.3-9.6,2.8-12.6,6.7c-2.9,3.7-4,8.5-3.3,13.1c-0.8,0.3-1.6,0.6-2.3,1.1
		c-14.8,10-29.5,20-44.2,30.1c-1.2,0.9-2.5,1.8-3.6,2.8c-2.5,2.6-2.5,7.1-0.2,9.9c2.5,3.1,7.4,3.7,10.6,1.3
		c15.1-10.4,30.2-20.5,45.3-30.9c1-0.7,1.9-1.5,2.7-2.4c2.5,1.2,5.1,2.2,7.9,2.3c5.4,0.4,10.7-2.2,14.2-6.3C92,39.8,93.3,35.4,93,31
		c-3.9,2.3-7.5,5.1-11.3,7.5C80.5,39.2,78.8,39,78,37.8z M18.3,77.5c-1.8,1.8-4.9,2.2-6.9,0.6c-0.9-0.9-1.7-2-1.7-3.3
		c-0.1-1.6,0.7-3,1.8-4.1c2-1.9,5.7-2,7.5,0.2C20.6,72.9,20.1,75.9,18.3,77.5z"/>
</g>
</svg>
